<mxfile host="app.diagrams.net" modified="2023-11-03T12:35:00.409Z" agent="Mozilla/5.0 (Windows NT 10.0; Win64; x64) AppleWebKit/537.36 (KHTML, like Gecko) Chrome/118.0.0.0 Safari/537.36" etag="tS3CqZtBN38l6FmpvOQS" version="22.0.8" type="device">
  <diagram name="Seite-1" id="RIMdOpr2lOWzrgXlLLmI">
    <mxGraphModel dx="936" dy="542" grid="1" gridSize="10" guides="1" tooltips="1" connect="1" arrows="1" fold="1" page="1" pageScale="1" pageWidth="827" pageHeight="1169" background="none" math="0" shadow="0">
      <root>
        <mxCell id="0" />
        <mxCell id="1" parent="0" />
        <mxCell id="8ycK_79fRJv6SBO_BKyE-51" style="edgeStyle=orthogonalEdgeStyle;rounded=0;orthogonalLoop=1;jettySize=auto;html=1;exitX=1;exitY=0.5;exitDx=0;exitDy=0;entryX=0;entryY=0.5;entryDx=0;entryDy=0;" parent="1" source="8ycK_79fRJv6SBO_BKyE-1" target="8ycK_79fRJv6SBO_BKyE-47" edge="1">
          <mxGeometry relative="1" as="geometry" />
        </mxCell>
        <mxCell id="8ycK_79fRJv6SBO_BKyE-1" value="" style="ellipse;whiteSpace=wrap;html=1;aspect=fixed;fillColor=#000000;" parent="1" vertex="1">
          <mxGeometry x="50" y="90" width="20" height="20" as="geometry" />
        </mxCell>
        <mxCell id="8ycK_79fRJv6SBO_BKyE-10" style="edgeStyle=orthogonalEdgeStyle;rounded=0;orthogonalLoop=1;jettySize=auto;html=1;exitX=1;exitY=0.5;exitDx=0;exitDy=0;entryX=0;entryY=0.5;entryDx=0;entryDy=0;" parent="1" source="8ycK_79fRJv6SBO_BKyE-3" target="8ycK_79fRJv6SBO_BKyE-5" edge="1">
          <mxGeometry relative="1" as="geometry" />
        </mxCell>
        <mxCell id="8ycK_79fRJv6SBO_BKyE-3" value="Asset auswählen" style="rounded=1;whiteSpace=wrap;html=1;" parent="1" vertex="1">
          <mxGeometry x="120" y="40" width="120" height="40" as="geometry" />
        </mxCell>
        <mxCell id="8ycK_79fRJv6SBO_BKyE-12" style="edgeStyle=orthogonalEdgeStyle;rounded=0;orthogonalLoop=1;jettySize=auto;html=1;exitX=1;exitY=0.5;exitDx=0;exitDy=0;entryX=0.5;entryY=0;entryDx=0;entryDy=0;" parent="1" source="8ycK_79fRJv6SBO_BKyE-5" target="8ycK_79fRJv6SBO_BKyE-11" edge="1">
          <mxGeometry relative="1" as="geometry" />
        </mxCell>
        <mxCell id="8ycK_79fRJv6SBO_BKyE-5" value="Asset in Welt ziehen" style="rounded=1;whiteSpace=wrap;html=1;" parent="1" vertex="1">
          <mxGeometry x="320" y="40" width="120" height="40" as="geometry" />
        </mxCell>
        <mxCell id="8ycK_79fRJv6SBO_BKyE-31" style="edgeStyle=orthogonalEdgeStyle;rounded=0;orthogonalLoop=1;jettySize=auto;html=1;exitX=1;exitY=0.5;exitDx=0;exitDy=0;entryX=0.5;entryY=0;entryDx=0;entryDy=0;" parent="1" source="8ycK_79fRJv6SBO_BKyE-6" target="8ycK_79fRJv6SBO_BKyE-34" edge="1">
          <mxGeometry relative="1" as="geometry">
            <mxPoint x="630" y="100" as="targetPoint" />
          </mxGeometry>
        </mxCell>
        <mxCell id="8ycK_79fRJv6SBO_BKyE-6" value="Objekt in Welt an gewünschter Position ablegen" style="rounded=1;whiteSpace=wrap;html=1;" parent="1" vertex="1">
          <mxGeometry x="510" y="80" width="140" height="40" as="geometry" />
        </mxCell>
        <mxCell id="8ycK_79fRJv6SBO_BKyE-46" style="edgeStyle=orthogonalEdgeStyle;rounded=0;orthogonalLoop=1;jettySize=auto;html=1;exitX=1;exitY=0.5;exitDx=0;exitDy=0;entryX=0;entryY=0.5;entryDx=0;entryDy=0;" parent="1" source="8ycK_79fRJv6SBO_BKyE-7" target="8ycK_79fRJv6SBO_BKyE-42" edge="1">
          <mxGeometry relative="1" as="geometry" />
        </mxCell>
        <mxCell id="8ycK_79fRJv6SBO_BKyE-7" value="Objekt in Welt auswählen" style="rounded=1;whiteSpace=wrap;html=1;" parent="1" vertex="1">
          <mxGeometry x="120" y="120" width="120" height="40" as="geometry" />
        </mxCell>
        <mxCell id="8ycK_79fRJv6SBO_BKyE-13" style="edgeStyle=orthogonalEdgeStyle;rounded=0;orthogonalLoop=1;jettySize=auto;html=1;exitX=1;exitY=0.5;exitDx=0;exitDy=0;entryX=0.5;entryY=1;entryDx=0;entryDy=0;" parent="1" source="8ycK_79fRJv6SBO_BKyE-8" target="8ycK_79fRJv6SBO_BKyE-11" edge="1">
          <mxGeometry relative="1" as="geometry" />
        </mxCell>
        <mxCell id="8ycK_79fRJv6SBO_BKyE-8" value="Objekt bewegen" style="rounded=1;whiteSpace=wrap;html=1;" parent="1" vertex="1">
          <mxGeometry x="320" y="120" width="120" height="40" as="geometry" />
        </mxCell>
        <mxCell id="8ycK_79fRJv6SBO_BKyE-14" style="edgeStyle=orthogonalEdgeStyle;rounded=0;orthogonalLoop=1;jettySize=auto;html=1;exitX=1;exitY=0.5;exitDx=0;exitDy=0;entryX=0;entryY=0.5;entryDx=0;entryDy=0;" parent="1" source="8ycK_79fRJv6SBO_BKyE-11" target="8ycK_79fRJv6SBO_BKyE-6" edge="1">
          <mxGeometry relative="1" as="geometry" />
        </mxCell>
        <mxCell id="8ycK_79fRJv6SBO_BKyE-11" value="" style="rhombus;whiteSpace=wrap;html=1;" parent="1" vertex="1">
          <mxGeometry x="450" y="90" width="20" height="20" as="geometry" />
        </mxCell>
        <mxCell id="8ycK_79fRJv6SBO_BKyE-27" style="edgeStyle=orthogonalEdgeStyle;rounded=0;orthogonalLoop=1;jettySize=auto;html=1;exitX=0.5;exitY=1;exitDx=0;exitDy=0;entryX=0.5;entryY=1;entryDx=0;entryDy=0;" parent="1" source="8ycK_79fRJv6SBO_BKyE-15" target="8ycK_79fRJv6SBO_BKyE-25" edge="1">
          <mxGeometry relative="1" as="geometry">
            <Array as="points">
              <mxPoint x="464" y="280" />
              <mxPoint x="140" y="280" />
            </Array>
          </mxGeometry>
        </mxCell>
        <mxCell id="mDLTDCUDrlJW6RNk4AM6-5" style="edgeStyle=orthogonalEdgeStyle;rounded=0;orthogonalLoop=1;jettySize=auto;html=1;exitX=1;exitY=0.5;exitDx=0;exitDy=0;entryX=0;entryY=0.5;entryDx=0;entryDy=0;" edge="1" parent="1" source="8ycK_79fRJv6SBO_BKyE-15" target="8ycK_79fRJv6SBO_BKyE-20">
          <mxGeometry relative="1" as="geometry" />
        </mxCell>
        <mxCell id="8ycK_79fRJv6SBO_BKyE-15" value="" style="rhombus;whiteSpace=wrap;html=1;" parent="1" vertex="1">
          <mxGeometry x="454" y="230" width="20" height="20" as="geometry" />
        </mxCell>
        <mxCell id="8ycK_79fRJv6SBO_BKyE-21" style="edgeStyle=orthogonalEdgeStyle;rounded=0;orthogonalLoop=1;jettySize=auto;html=1;exitX=1;exitY=0.5;exitDx=0;exitDy=0;entryX=0;entryY=0.5;entryDx=0;entryDy=0;" parent="1" source="8ycK_79fRJv6SBO_BKyE-16" target="8ycK_79fRJv6SBO_BKyE-19" edge="1">
          <mxGeometry relative="1" as="geometry" />
        </mxCell>
        <mxCell id="8ycK_79fRJv6SBO_BKyE-16" value="Zu Änderndes Attribut auswählen" style="rounded=1;whiteSpace=wrap;html=1;" parent="1" vertex="1">
          <mxGeometry x="160" y="220" width="120" height="40" as="geometry" />
        </mxCell>
        <mxCell id="8ycK_79fRJv6SBO_BKyE-22" style="edgeStyle=orthogonalEdgeStyle;rounded=0;orthogonalLoop=1;jettySize=auto;html=1;exitX=1;exitY=0.5;exitDx=0;exitDy=0;entryX=0;entryY=0.5;entryDx=0;entryDy=0;" parent="1" source="8ycK_79fRJv6SBO_BKyE-19" target="8ycK_79fRJv6SBO_BKyE-15" edge="1">
          <mxGeometry relative="1" as="geometry" />
        </mxCell>
        <mxCell id="8ycK_79fRJv6SBO_BKyE-19" value="Neuen Attributwert eingeben" style="rounded=1;whiteSpace=wrap;html=1;" parent="1" vertex="1">
          <mxGeometry x="320" y="220" width="120" height="40" as="geometry" />
        </mxCell>
        <mxCell id="8ycK_79fRJv6SBO_BKyE-35" style="edgeStyle=orthogonalEdgeStyle;rounded=0;orthogonalLoop=1;jettySize=auto;html=1;exitX=1;exitY=0.5;exitDx=0;exitDy=0;entryX=0.5;entryY=1;entryDx=0;entryDy=0;" parent="1" source="8ycK_79fRJv6SBO_BKyE-20" target="8ycK_79fRJv6SBO_BKyE-34" edge="1">
          <mxGeometry relative="1" as="geometry" />
        </mxCell>
        <mxCell id="8ycK_79fRJv6SBO_BKyE-20" value="Neuen Attributwert übernehmen" style="rounded=1;whiteSpace=wrap;html=1;" parent="1" vertex="1">
          <mxGeometry x="560" y="220" width="120" height="40" as="geometry" />
        </mxCell>
        <mxCell id="8ycK_79fRJv6SBO_BKyE-26" style="edgeStyle=orthogonalEdgeStyle;rounded=0;orthogonalLoop=1;jettySize=auto;html=1;exitX=1;exitY=0.5;exitDx=0;exitDy=0;entryX=0;entryY=0.5;entryDx=0;entryDy=0;" parent="1" source="8ycK_79fRJv6SBO_BKyE-25" target="8ycK_79fRJv6SBO_BKyE-16" edge="1">
          <mxGeometry relative="1" as="geometry" />
        </mxCell>
        <mxCell id="8ycK_79fRJv6SBO_BKyE-25" value="" style="rhombus;whiteSpace=wrap;html=1;" parent="1" vertex="1">
          <mxGeometry x="130" y="230" width="20" height="20" as="geometry" />
        </mxCell>
        <mxCell id="8ycK_79fRJv6SBO_BKyE-28" value="&lt;font style=&quot;font-size: 8px;&quot;&gt;[Wert nicht akzeptiert]&lt;/font&gt;" style="text;html=1;strokeColor=none;fillColor=none;align=center;verticalAlign=middle;whiteSpace=wrap;rounded=0;" parent="1" vertex="1">
          <mxGeometry x="380" y="280" width="80" height="10" as="geometry" />
        </mxCell>
        <mxCell id="8ycK_79fRJv6SBO_BKyE-33" style="edgeStyle=orthogonalEdgeStyle;rounded=0;orthogonalLoop=1;jettySize=auto;html=1;exitX=0;exitY=0.5;exitDx=0;exitDy=0;entryX=0.5;entryY=0;entryDx=0;entryDy=0;" parent="1" source="8ycK_79fRJv6SBO_BKyE-34" target="8ycK_79fRJv6SBO_BKyE-25" edge="1">
          <mxGeometry relative="1" as="geometry">
            <mxPoint x="620" y="120" as="sourcePoint" />
            <mxPoint x="140" y="200" as="targetPoint" />
            <Array as="points">
              <mxPoint x="640" y="160" />
              <mxPoint x="640" y="190" />
              <mxPoint x="140" y="190" />
            </Array>
          </mxGeometry>
        </mxCell>
        <mxCell id="8ycK_79fRJv6SBO_BKyE-38" style="edgeStyle=orthogonalEdgeStyle;rounded=0;orthogonalLoop=1;jettySize=auto;html=1;exitX=1;exitY=0.5;exitDx=0;exitDy=0;entryX=0;entryY=0.5;entryDx=0;entryDy=0;" parent="1" source="8ycK_79fRJv6SBO_BKyE-34" target="8ycK_79fRJv6SBO_BKyE-37" edge="1">
          <mxGeometry relative="1" as="geometry" />
        </mxCell>
        <mxCell id="8ycK_79fRJv6SBO_BKyE-34" value="" style="rhombus;whiteSpace=wrap;html=1;" parent="1" vertex="1">
          <mxGeometry x="690" y="150" width="20" height="20" as="geometry" />
        </mxCell>
        <mxCell id="8ycK_79fRJv6SBO_BKyE-41" style="edgeStyle=orthogonalEdgeStyle;rounded=0;orthogonalLoop=1;jettySize=auto;html=1;exitX=1;exitY=0.5;exitDx=0;exitDy=0;entryX=0;entryY=0.5;entryDx=0;entryDy=0;" parent="1" source="8ycK_79fRJv6SBO_BKyE-37" target="8ycK_79fRJv6SBO_BKyE-39" edge="1">
          <mxGeometry relative="1" as="geometry" />
        </mxCell>
        <mxCell id="8ycK_79fRJv6SBO_BKyE-37" value="Objekt abspeichern" style="rounded=1;whiteSpace=wrap;html=1;" parent="1" vertex="1">
          <mxGeometry x="720" y="140" width="120" height="40" as="geometry" />
        </mxCell>
        <mxCell id="8ycK_79fRJv6SBO_BKyE-39" value="" style="ellipse;whiteSpace=wrap;html=1;aspect=fixed;" parent="1" vertex="1">
          <mxGeometry x="860" y="150" width="20" height="20" as="geometry" />
        </mxCell>
        <mxCell id="8ycK_79fRJv6SBO_BKyE-40" value="" style="ellipse;whiteSpace=wrap;html=1;aspect=fixed;fillColor=#000000;" parent="1" vertex="1">
          <mxGeometry x="865" y="155" width="10" height="10" as="geometry" />
        </mxCell>
        <mxCell id="8ycK_79fRJv6SBO_BKyE-44" style="edgeStyle=orthogonalEdgeStyle;rounded=0;orthogonalLoop=1;jettySize=auto;html=1;exitX=0.5;exitY=1;exitDx=0;exitDy=0;entryX=0;entryY=0.5;entryDx=0;entryDy=0;" parent="1" source="8ycK_79fRJv6SBO_BKyE-42" target="8ycK_79fRJv6SBO_BKyE-25" edge="1">
          <mxGeometry relative="1" as="geometry">
            <Array as="points">
              <mxPoint x="280" y="180" />
              <mxPoint x="110" y="180" />
              <mxPoint x="110" y="240" />
            </Array>
          </mxGeometry>
        </mxCell>
        <mxCell id="8ycK_79fRJv6SBO_BKyE-45" style="edgeStyle=orthogonalEdgeStyle;rounded=0;orthogonalLoop=1;jettySize=auto;html=1;exitX=1;exitY=0.5;exitDx=0;exitDy=0;entryX=0;entryY=0.5;entryDx=0;entryDy=0;" parent="1" source="8ycK_79fRJv6SBO_BKyE-42" target="8ycK_79fRJv6SBO_BKyE-8" edge="1">
          <mxGeometry relative="1" as="geometry" />
        </mxCell>
        <mxCell id="8ycK_79fRJv6SBO_BKyE-42" value="" style="rhombus;whiteSpace=wrap;html=1;" parent="1" vertex="1">
          <mxGeometry x="270" y="130" width="20" height="20" as="geometry" />
        </mxCell>
        <mxCell id="8ycK_79fRJv6SBO_BKyE-49" style="edgeStyle=orthogonalEdgeStyle;rounded=0;orthogonalLoop=1;jettySize=auto;html=1;exitX=0.5;exitY=0;exitDx=0;exitDy=0;entryX=0;entryY=0.5;entryDx=0;entryDy=0;" parent="1" source="8ycK_79fRJv6SBO_BKyE-47" target="8ycK_79fRJv6SBO_BKyE-3" edge="1">
          <mxGeometry relative="1" as="geometry">
            <Array as="points">
              <mxPoint x="100" y="60" />
            </Array>
          </mxGeometry>
        </mxCell>
        <mxCell id="8ycK_79fRJv6SBO_BKyE-50" style="edgeStyle=orthogonalEdgeStyle;rounded=0;orthogonalLoop=1;jettySize=auto;html=1;exitX=0.5;exitY=1;exitDx=0;exitDy=0;entryX=0;entryY=0.5;entryDx=0;entryDy=0;" parent="1" source="8ycK_79fRJv6SBO_BKyE-47" target="8ycK_79fRJv6SBO_BKyE-7" edge="1">
          <mxGeometry relative="1" as="geometry">
            <Array as="points">
              <mxPoint x="100" y="140" />
            </Array>
          </mxGeometry>
        </mxCell>
        <mxCell id="8ycK_79fRJv6SBO_BKyE-47" value="" style="rhombus;whiteSpace=wrap;html=1;" parent="1" vertex="1">
          <mxGeometry x="90" y="90" width="20" height="20" as="geometry" />
        </mxCell>
        <mxCell id="8ycK_79fRJv6SBO_BKyE-24" value="&lt;font style=&quot;font-size: 8px;&quot;&gt;[Wert akzeptiert]&lt;/font&gt;" style="text;html=1;strokeColor=none;fillColor=none;align=center;verticalAlign=middle;whiteSpace=wrap;rounded=0;" parent="1" vertex="1">
          <mxGeometry x="470" y="228" width="80" height="10" as="geometry" />
        </mxCell>
      </root>
    </mxGraphModel>
  </diagram>
</mxfile>
